HIERARCHY
ROOT Hips
{
	OFFSET 0.000000 100.481300 0.000000
	CHANNELS 6 Xposition Yposition Zposition Xrotation Yrotation Zrotation
	JOINT Spine
	{
		OFFSET -0.279200 12.230698 -2.892100
		CHANNELS 3 Xrotation Yrotation Zrotation
		JOINT Spine1
		{
			OFFSET -0.325700 14.269203 -3.374200
			CHANNELS 3 Xrotation Yrotation Zrotation
			JOINT Spine2
			{
				OFFSET -0.372300 16.307602 -0.352600
				CHANNELS 3 Xrotation Yrotation Zrotation
				JOINT Neck
				{
					OFFSET -0.418800 17.814194 8.416900
					CHANNELS 3 Xrotation Yrotation Zrotation
					JOINT Head
					{
						OFFSET 0.000000 7.031097 3.806800
						CHANNELS 3 Xrotation Yrotation Zrotation
						JOINT HeadTop_End
						{
							OFFSET 0.000000 24.646606 12.978600
							CHANNELS 3 Xrotation Yrotation Zrotation
							End Site
							{
								OFFSET 0.000000 27.854965 0.000000
							}
						}
					}
				}
				JOINT LeftShoulder
				{
					OFFSET 16.952999 14.495407 -7.737500
					CHANNELS 3 Xrotation Yrotation Zrotation
					JOINT LeftArm
					{
						OFFSET 9.308998 -2.777710 0.208600
						CHANNELS 3 Xrotation Yrotation Zrotation
						JOINT LeftForeArm
						{
							OFFSET 29.972298 0.000000 0.000000
							CHANNELS 3 Xrotation Yrotation Zrotation
							JOINT LeftHand
							{
								OFFSET 26.026505 0.000000 0.000000
								CHANNELS 3 Xrotation Yrotation Zrotation
								JOINT LeftHandThumb1
								{
									OFFSET 12.240501 -7.147949 9.207150
									CHANNELS 3 Xrotation Yrotation Zrotation
									JOINT LeftHandThumb2
									{
										OFFSET 4.138618 -2.389435 2.389433
										CHANNELS 3 Xrotation Yrotation Zrotation
										JOINT LeftHandThumb3
										{
											OFFSET 2.726913 -1.574387 1.574386
											CHANNELS 3 Xrotation Yrotation Zrotation
											JOINT LeftHandThumb4
											{
												OFFSET 3.941010 -2.275345 2.275342
												CHANNELS 3 Xrotation Yrotation Zrotation
												End Site
												{
													OFFSET -0.005798 5.087799 0.009903
												}
											}
										}
									}
								}
								JOINT LeftHandIndex1
								{
									OFFSET 24.424698 -1.985611 5.953459
									CHANNELS 3 Xrotation Yrotation Zrotation
									JOINT LeftHandIndex2
									{
										OFFSET 6.426697 0.000000 0.000000
										CHANNELS 3 Xrotation Yrotation Zrotation
										JOINT LeftHandIndex3
										{
											OFFSET 5.337898 0.000000 0.000000
											CHANNELS 3 Xrotation Yrotation Zrotation
											JOINT LeftHandIndex4
											{
												OFFSET 4.409401 0.000000 0.000000
												CHANNELS 3 Xrotation Yrotation Zrotation
												End Site
												{
													OFFSET 0.000000 4.409363 0.014373
												}
											}
										}
									}
								}
								JOINT LeftHandMiddle1
								{
									OFFSET 23.810104 0.000000 0.000000
									CHANNELS 3 Xrotation Yrotation Zrotation
									JOINT LeftHandMiddle2
									{
										OFFSET 7.176498 0.000000 0.000000
										CHANNELS 3 Xrotation Yrotation Zrotation
										JOINT LeftHandMiddle3
										{
											OFFSET 6.774902 0.000000 0.000000
											CHANNELS 3 Xrotation Yrotation Zrotation
											JOINT LeftHandMiddle4
											{
												OFFSET 5.403328 0.000000 0.000000
												CHANNELS 3 Xrotation Yrotation Zrotation
												End Site
												{
													OFFSET -0.027702 5.403244 0.017414
												}
											}
										}
									}
								}
								JOINT LeftHandRing1
								{
									OFFSET 22.908401 -0.839279 -6.020567
									CHANNELS 3 Xrotation Yrotation Zrotation
									JOINT LeftHandRing2
									{
										OFFSET 6.337502 0.000000 0.000000
										CHANNELS 3 Xrotation Yrotation Zrotation
										JOINT LeftHandRing3
										{
											OFFSET 5.779297 0.000000 0.000000
											CHANNELS 3 Xrotation Yrotation Zrotation
											JOINT LeftHandRing4
											{
												OFFSET 4.965698 0.000000 0.000000
												CHANNELS 3 Xrotation Yrotation Zrotation
												End Site
												{
													OFFSET 0.000000 4.965668 0.016186
												}
											}
										}
									}
								}
								JOINT LeftHandPinky1
								{
									OFFSET 20.037003 -1.530319 -10.950146
									CHANNELS 3 Xrotation Yrotation Zrotation
									JOINT LeftHandPinky2
									{
										OFFSET 5.254700 0.000000 0.000000
										CHANNELS 3 Xrotation Yrotation Zrotation
										JOINT LeftHandPinky3
										{
											OFFSET 4.810204 0.000000 0.000000
											CHANNELS 3 Xrotation Yrotation Zrotation
											JOINT LeftHandPinky4
											{
												OFFSET 3.647202 0.000000 0.000000
												CHANNELS 3 Xrotation Yrotation Zrotation
												End Site
												{
													OFFSET 0.000000 3.647186 0.011889
												}
											}
										}
									}
								}
							}
						}
					}
				}
				JOINT RightShoulder
				{
					OFFSET -15.141001 14.495407 -7.737500
					CHANNELS 3 Xrotation Yrotation Zrotation
					JOINT RightArm
					{
						OFFSET -9.308998 -2.777710 0.208500
						CHANNELS 3 Xrotation Yrotation Zrotation
						JOINT RightForeArm
						{
							OFFSET -29.972300 0.000000 0.000000
							CHANNELS 3 Xrotation Yrotation Zrotation
							JOINT RightHand
							{
								OFFSET -26.026505 0.000000 0.000000
								CHANNELS 3 Xrotation Yrotation Zrotation
								JOINT RightHandThumb1
								{
									OFFSET -12.240601 -7.148026 9.207092
									CHANNELS 3 Xrotation Yrotation Zrotation
									JOINT RightHandThumb2
									{
										OFFSET -4.138618 -2.389435 2.389433
										CHANNELS 3 Xrotation Yrotation Zrotation
										JOINT RightHandThumb3
										{
											OFFSET -2.726974 -1.574417 1.574421
											CHANNELS 3 Xrotation Yrotation Zrotation
											JOINT RightHandThumb4
											{
												OFFSET -3.941010 -2.275345 2.275343
												CHANNELS 3 Xrotation Yrotation Zrotation
												End Site
												{
													OFFSET 0.005814 5.087799 0.009927
												}
											}
										}
									}
								}
								JOINT RightHandIndex1
								{
									OFFSET -24.424698 -1.985657 5.953444
									CHANNELS 3 Xrotation Yrotation Zrotation
									JOINT RightHandIndex2
									{
										OFFSET -6.426697 0.000000 0.000000
										CHANNELS 3 Xrotation Yrotation Zrotation
										JOINT RightHandIndex3
										{
											OFFSET -5.337898 0.000000 0.000000
											CHANNELS 3 Xrotation Yrotation Zrotation
											JOINT RightHandIndex4
											{
												OFFSET -4.409401 0.000000 0.000000
												CHANNELS 3 Xrotation Yrotation Zrotation
												End Site
												{
													OFFSET 0.000000 4.409363 0.014408
												}
											}
										}
									}
								}
								JOINT RightHandMiddle1
								{
									OFFSET -23.810097 0.000000 0.000000
									CHANNELS 3 Xrotation Yrotation Zrotation
									JOINT RightHandMiddle2
									{
										OFFSET -7.176498 0.000000 0.000000
										CHANNELS 3 Xrotation Yrotation Zrotation
										JOINT RightHandMiddle3
										{
											OFFSET -6.774902 0.000000 0.000000
											CHANNELS 3 Xrotation Yrotation Zrotation
											JOINT RightHandMiddle4
											{
												OFFSET -5.403328 0.000000 0.000000
												CHANNELS 3 Xrotation Yrotation Zrotation
												End Site
												{
													OFFSET 0.027702 5.403244 0.017457
												}
											}
										}
									}
								}
								JOINT RightHandRing1
								{
									OFFSET -22.908302 -0.839325 -6.020576
									CHANNELS 3 Xrotation Yrotation Zrotation
									JOINT RightHandRing2
									{
										OFFSET -6.337502 0.000000 0.000000
										CHANNELS 3 Xrotation Yrotation Zrotation
										JOINT RightHandRing3
										{
											OFFSET -5.779297 0.000000 0.000000
											CHANNELS 3 Xrotation Yrotation Zrotation
											JOINT RightHandRing4
											{
												OFFSET -4.965698 0.000000 0.000000
												CHANNELS 3 Xrotation Yrotation Zrotation
												End Site
												{
													OFFSET 0.000000 4.965668 0.016226
												}
											}
										}
									}
								}
								JOINT RightHandPinky1
								{
									OFFSET -20.037003 -1.530334 -10.950259
									CHANNELS 3 Xrotation Yrotation Zrotation
									JOINT RightHandPinky2
									{
										OFFSET -5.254700 0.000000 0.000000
										CHANNELS 3 Xrotation Yrotation Zrotation
										JOINT RightHandPinky3
										{
											OFFSET -4.810204 0.000000 0.000000
											CHANNELS 3 Xrotation Yrotation Zrotation
											JOINT RightHandPinky4
											{
												OFFSET -3.647202 0.000000 0.000000
												CHANNELS 3 Xrotation Yrotation Zrotation
												End Site
												{
													OFFSET 0.000000 3.647186 0.011917
												}
											}
										}
									}
								}
							}
						}
					}
				}
			}
		}
	}
	JOINT LeftUpLeg
	{
		OFFSET 15.427100 -6.655098 0.678600
		CHANNELS 3 Xrotation Yrotation Zrotation
		JOINT LeftLeg
		{
			OFFSET 4.081073 -39.591068 13.024000
			CHANNELS 3 Xrotation Yrotation Zrotation
			JOINT LeftFoot
			{
				OFFSET -4.081074 -37.707932 -15.979700
				CHANNELS 3 Xrotation Yrotation Zrotation
				JOINT LeftToeBase
				{
					OFFSET 5.346399 -15.068900 20.645000
					CHANNELS 3 Xrotation Yrotation Zrotation
					JOINT LeftToe_End
					{
						OFFSET 2.754700 0.931300 11.300900
						CHANNELS 3 Xrotation Yrotation Zrotation
						End Site
						{
							OFFSET 0.000000 11.669021 0.000000
						}
					}
				}
			}
		}
	}
	JOINT RightUpLeg
	{
		OFFSET -15.569500 -6.655098 0.678600
		CHANNELS 3 Xrotation Yrotation Zrotation
		JOINT RightLeg
		{
			OFFSET -4.081825 -39.591045 13.023800
			CHANNELS 3 Xrotation Yrotation Zrotation
			JOINT RightFoot
			{
				OFFSET 4.081824 -37.707954 -15.979600
				CHANNELS 3 Xrotation Yrotation Zrotation
				JOINT RightToeBase
				{
					OFFSET -5.346400 -15.068900 20.645000
					CHANNELS 3 Xrotation Yrotation Zrotation
					JOINT RightToe_End
					{
						OFFSET -2.754700 0.931300 11.300900
						CHANNELS 3 Xrotation Yrotation Zrotation
						End Site
						{
							OFFSET 0.000000 11.669021 0.000000
						}
					}
				}
			}
		}
	}
}
MOTION
Frames: 6
Frame Time: 0.033333
109.687050 60.566505 8.506258 16.455833 -51.043575 -0.703115 25.309430 14.691725 -10.489059 7.745582 -0.497985 -10.562598 10.089254 -3.855185 -4.190482 -19.047436 9.489933 3.898850 -25.613121 20.848719 22.333067 -0.000000 -0.000000 0.000000 -35.636471 -9.783067 10.995755 -86.099671 -27.575830 -61.590678 0.000013 -37.430239 -0.000000 -119.309485 12.368455 25.282949 1.345668 -0.520464 2.999275 17.962670 -5.083936 7.059811 -4.511815 -9.605809 1.356513 -0.000000 0.000002 -0.000000 -1.671295 2.528784 -40.900993 2.951031 5.083980 -60.245076 0.515650 2.405216 -24.197692 -0.000001 -0.000001 0.000001 0.494168 5.601984 -52.980340 3.408718 5.318542 -65.290441 0.289235 1.819736 -18.061102 -0.000001 -0.000000 0.000000 -0.035755 5.758041 -61.060785 4.502889 5.694144 -76.656080 0.582668 2.548972 -25.748001 -0.000001 -0.000003 -0.000002 2.252094 7.089222 -64.435786 4.520002 5.698170 -76.828563 1.296083 3.676358 -38.828983 0.000000 0.000003 0.000000 -49.320410 13.365082 20.574534 -36.180315 36.603909 74.791890 -0.000008 108.995168 0.000006 -33.220780 -28.832776 -33.715750 7.937630 -3.845508 10.940829 21.739459 -18.985346 -16.478156 0.089754 -49.732510 -31.675467 -0.000001 0.000001 0.000005 -1.170029 1.346001 16.088721 1.421825 -3.351656 45.964854 0.615837 -2.316439 29.773112 0.000000 -0.000000 0.000000 3.548936 -7.316051 51.184775 6.301522 -4.357815 110.696589 0.250362 -1.507906 18.853093 0.000000 -0.000000 -0.000000 -3.284109 -2.731677 57.663449 5.452732 -4.588866 99.846349 1.698783 -3.598422 50.531652 0.000000 -0.000000 0.000003 -3.771467 -3.465269 64.978786 4.071403 -4.620278 82.766518 2.326461 -4.033088 59.942375 0.000000 -0.000000 -0.000000 -93.402277 10.288508 -4.201133 68.285247 6.393696 5.286588 6.477137 -10.541794 -5.671881 0.894991 -0.000018 -0.000009 -0.000000 -0.000002 0.000001 -11.801686 -23.316324 30.514434 64.775431 -5.190530 8.810827 -57.784083 -1.080257 -18.921384 -10.159399 -0.000020 -0.000009 0.000000 -0.000000 0.000000 
113.778458 61.500557 8.051085 16.363364 -49.441103 -0.564870 26.334771 13.476360 -10.050004 7.446662 -0.679918 -10.494599 9.795506 -4.041849 -4.113564 -18.887631 9.582210 3.590983 -25.529394 20.643318 22.142403 -0.000001 0.000000 -0.000000 -35.636785 -10.384736 10.690809 -86.501136 -26.898762 -61.411030 -0.000014 -37.787479 -0.000013 -118.549913 12.725786 25.570620 1.370175 -0.441219 3.016109 18.248466 -4.511537 7.034236 -4.467289 -9.595071 1.198290 -0.000000 -0.000003 -0.000001 -1.767855 2.370414 -40.561990 2.948582 5.082599 -60.217277 0.514751 2.403205 -24.176121 0.000000 0.000001 0.000003 0.448915 5.566122 -52.946155 3.400842 5.314955 -65.205603 0.286627 1.811720 -17.978742 -0.000001 -0.000000 -0.000004 -0.079203 5.734127 -61.061516 4.462802 5.684553 -76.251815 0.582666 2.548973 -25.748000 0.000001 0.000001 0.000002 2.240089 7.083507 -64.435670 4.477800 5.688189 -76.403029 1.298374 3.679183 -38.864668 -0.000000 -0.000001 0.000000 -49.307593 13.424836 20.212983 -36.560179 36.714739 74.910093 0.000081 108.961175 -0.000086 -33.020601 -28.681573 -33.938643 7.929063 -3.826242 10.939544 21.724310 -18.991037 -16.470578 0.061736 -49.734897 -31.706565 -0.000001 0.000002 -0.000001 -1.171991 1.323742 16.178044 1.421791 -3.351680 45.964810 0.615837 -2.316439 29.773112 0.000000 0.000000 -0.000000 3.567626 -7.325503 51.293450 6.301438 -4.357840 110.695701 0.250349 -1.507825 18.852150 -0.000001 -0.000000 0.000000 -3.294265 -2.729116 57.692327 5.452612 -4.588881 99.844757 1.698649 -3.598317 50.529746 -0.000000 -0.000000 0.000001 -3.815599 -3.445571 64.986129 4.068359 -4.619890 82.728624 2.323786 -4.031563 59.904598 0.000000 -0.000000 -0.000000 -92.612092 8.975426 -2.903342 71.146044 4.712618 5.796428 1.726426 -5.889173 -4.087946 -0.284789 -0.000020 -0.000010 0.000001 0.000001 0.000000 -16.835925 -24.613609 28.251940 64.387278 -5.044859 7.402375 -56.836538 -3.110492 -18.731217 -6.441697 0.000013 -0.000004 0.000000 0.000000 0.000000 
117.645058 62.724869 7.816946 16.670426 -47.210701 0.004259 27.086230 12.067168 -9.411244 7.238021 -0.920684 -10.420643 9.593593 -4.281634 -4.018415 -18.922061 9.654099 3.472076 -25.260575 20.634181 22.028210 -0.000001 0.000000 -0.000001 -35.640511 -10.879149 10.492018 -86.933978 -26.207955 -61.444177 0.000012 -38.006745 0.000010 -117.859600 13.056508 25.671483 1.409597 -0.340871 3.024927 18.515113 -3.930881 7.050938 -4.472177 -9.596008 1.214377 -0.000000 -0.000003 -0.000001 -1.794694 2.307909 -40.336307 2.945710 5.080943 -60.184827 0.513470 2.400354 -24.145653 -0.000004 -0.000001 0.000002 0.445531 5.560133 -52.881415 3.396356 5.312856 -65.156945 0.285095 1.807014 -17.930389 -0.000001 0.000000 0.000002 -0.104763 5.720069 -61.061932 4.450894 5.681638 -76.131577 0.582669 2.548977 -25.747998 -0.000001 0.000004 -0.000000 2.226401 7.077022 -64.435527 4.460844 5.684066 -76.231898 1.299025 3.680000 -38.874923 -0.000000 -0.000004 -0.000000 -49.286785 13.429409 19.839792 -36.815201 36.777184 74.979611 -0.000013 108.966325 0.000004 -32.753827 -28.555380 -34.096601 7.966979 -3.923068 10.946345 21.611183 -18.916004 -16.766193 -0.146255 -49.760308 -31.931636 0.000002 0.000001 0.000001 -1.159652 1.333965 16.012479 1.421813 -3.351643 45.964772 0.615837 -2.316439 29.773116 0.000000 0.000000 -0.000000 3.554253 -7.304249 51.507262 6.301407 -4.357864 110.695155 0.250330 -1.507785 18.851467 -0.000002 0.000000 0.000000 -3.332640 -2.687142 57.564431 5.447274 -4.589794 99.778388 1.694426 -3.594858 50.462568 -0.000000 -0.000001 0.000000 -3.881525 -3.405445 64.921706 4.065784 -4.619538 82.696563 2.321535 -4.030262 59.872598 0.000001 0.000001 -0.000001 -91.367591 6.272740 -0.919627 73.091289 1.876010 5.796953 -1.172159 -4.387827 -3.441389 -1.631429 -0.000001 -0.000007 0.000001 -0.000002 -0.000000 -23.937271 -25.625222 24.893705 65.946248 -5.744304 6.152734 -53.478052 -7.166051 -17.905447 -4.024968 0.000007 -0.000001 0.000000 -0.000000 -0.000000 
121.481659 64.066765 7.722473 17.469326 -44.828939 0.812231 27.329597 10.929237 -8.559202 7.087635 -1.145777 -10.315427 9.452230 -4.499216 -3.888813 -19.022487 9.619021 3.576388 -24.797669 20.651999 21.734970 -0.000001 -0.000000 0.000000 -35.644944 -11.221915 10.337253 -87.251473 -25.702736 -61.616721 0.000028 -38.034472 0.000013 -117.402387 13.315460 25.571062 1.465603 -0.218434 3.025266 18.758846 -3.353692 7.115304 -4.515800 -9.606141 1.366828 -0.000000 0.000001 -0.000001 -1.837033 2.263636 -40.381352 2.945130 5.080615 -60.178372 0.513328 2.400030 -24.142075 0.000004 -0.000001 0.000002 0.398337 5.529563 -52.974128 3.399314 5.314226 -65.188931 0.286168 1.810329 -17.964414 -0.000002 0.000002 -0.000001 -0.099793 5.722813 -61.061843 4.447202 5.680719 -76.094106 0.582668 2.548977 -25.748001 -0.000000 0.000004 0.000001 2.216085 7.072129 -64.435410 4.459582 5.683756 -76.219228 1.297713 3.678397 -38.854566 0.000000 -0.000003 -0.000000 -49.259775 13.368594 19.508209 -36.869266 36.823513 74.971353 0.000079 108.998529 -0.000087 -32.498016 -28.475996 -34.228369 8.032147 -4.080373 10.957954 21.544496 -18.767526 -17.150870 -0.289500 -49.777503 -32.086548 -0.000003 0.000003 -0.000000 -1.150686 1.325189 15.941344 1.421805 -3.351652 45.964697 0.615837 -2.316439 29.773112 -0.000000 0.000000 -0.000000 3.531505 -7.283383 51.566504 6.301246 -4.357932 110.692949 0.250274 -1.507607 18.849114 0.000001 -0.000000 0.000000 -3.349200 -2.662874 57.465038 5.441684 -4.590763 99.708215 1.690025 -3.591216 50.392183 -0.000001 -0.000000 -0.000001 -3.937107 -3.378131 64.913940 4.063706 -4.619302 82.670929 2.319773 -4.029242 59.847053 0.000000 0.000000 0.000000 -90.368450 2.469561 2.355196 74.246929 -1.119152 5.523026 -1.737141 -4.612519 -6.839153 -2.225803 -0.000003 -0.000014 0.000000 -0.000003 0.000001 -31.071227 -26.027570 20.942706 66.872511 -6.201244 4.941784 -49.607360 -10.974774 -16.440550 -2.984763 -0.000020 -0.000005 0.000000 0.000000 -0.000000 
125.507042 65.374313 7.723240 18.694783 -42.556016 1.848459 26.995558 10.096740 -7.668342 6.903726 -1.334610 -10.155793 9.279270 -4.670499 -3.707489 -18.830662 9.651827 3.440720 -24.552384 20.464188 21.687008 0.000000 -0.000000 -0.000001 -35.647338 -11.434783 10.109500 -87.359786 -25.525721 -61.836448 -0.000016 -37.860551 -0.000025 -117.229337 13.498030 25.316426 1.539821 -0.072885 3.015817 18.976455 -2.791296 7.232922 -4.533153 -9.610110 1.426489 0.000001 0.000004 -0.000001 -1.798513 2.330549 -40.535489 2.944277 5.080129 -60.168680 0.512814 2.398899 -24.129829 0.000000 0.000001 0.000003 0.412979 5.547226 -53.096695 3.401472 5.315226 -65.212092 0.286888 1.812535 -17.987103 0.000001 -0.000003 0.000001 -0.079984 5.733703 -61.061529 4.452366 5.681992 -76.146186 0.582669 2.548974 -25.748007 0.000001 -0.000002 -0.000001 2.216080 7.072117 -64.435417 4.469530 5.686183 -76.319728 1.297813 3.678509 -38.856034 0.000000 -0.000001 0.000000 -49.228527 13.242016 19.258931 -36.678000 36.888031 74.874337 0.000039 109.040070 -0.000043 -32.315595 -28.447943 -34.372391 8.118916 -4.285490 10.973445 21.526506 -18.611794 -17.509117 -0.411478 -49.791898 -32.218388 0.000001 0.000002 0.000005 -1.146393 1.364881 15.775005 1.421822 -3.351660 45.964813 0.615837 -2.316439 29.773112 0.000000 -0.000000 0.000000 3.506379 -7.258562 51.671942 6.300699 -4.358127 110.685907 0.250077 -1.507033 18.841857 0.000000 -0.000000 -0.000000 -3.349768 -2.649802 57.372626 5.444214 -4.590332 99.740037 1.692023 -3.592871 50.423974 -0.000000 0.000000 0.000001 -3.960743 -3.354676 64.828194 4.062214 -4.619100 82.652331 2.318461 -4.028481 59.828701 -0.000000 0.000000 -0.000002 -89.818306 -1.207136 6.431253 75.984372 -2.783873 5.347542 -1.449304 -6.557469 -7.132059 -2.944526 0.000007 -0.000003 0.000000 -0.000001 -0.000001 -38.011529 -26.254530 15.917349 67.376046 -6.180491 4.324773 -45.348457 -13.701686 -14.469580 -2.629075 0.000027 0.000003 0.000000 -0.000000 -0.000000 
129.633026 66.422363 7.675762 19.913966 -40.686180 2.942562 26.107041 9.491299 -7.104399 6.825591 -1.464614 -9.964440 9.211810 -4.775732 -3.498463 -18.547736 9.676495 3.373470 -24.331541 20.345132 21.743311 0.000001 -0.000000 -0.000000 -35.632069 -11.445618 9.983199 -87.000743 -25.859817 -61.911690 -0.000029 -37.530954 -0.000022 -117.735017 13.473931 24.841253 1.633904 0.096863 2.995342 19.165415 -2.254321 7.409584 -4.541812 -9.612254 1.457171 -0.000000 -0.000001 0.000000 -1.803956 2.315558 -40.472989 2.943693 5.079792 -60.162144 0.512553 2.398324 -24.123677 -0.000002 -0.000001 0.000001 0.415283 5.548954 -53.096781 3.398449 5.313819 -65.179628 0.285865 1.809381 -17.954723 -0.000001 0.000001 -0.000002 -0.073834 5.737081 -61.061399 4.450211 5.681467 -76.124569 0.582670 2.548972 -25.748007 0.000001 0.000002 0.000002 2.216083 7.072129 -64.435397 4.466473 5.685442 -76.288630 1.296360 3.676699 -38.833437 0.000001 -0.000000 0.000000 -49.194659 13.057655 19.112275 -36.233908 36.996864 74.693993 -0.000094 109.071168 0.000089 -32.242161 -28.460104 -34.557352 8.228191 -4.543937 10.993455 21.548156 -18.427594 -17.900491 -0.552683 -49.808331 -32.370917 0.000003 0.000003 0.000004 -1.134087 1.394505 15.553270 1.421827 -3.351658 45.964827 0.615837 -2.316439 29.773112 -0.000000 -0.000000 -0.000000 3.476422 -7.230852 51.762541 6.298171 -4.359089 110.652323 0.249179 -1.504435 18.808244 -0.000001 -0.000000 -0.000000 -3.350862 -2.623870 57.189280 5.442433 -4.590621 99.717818 1.690627 -3.591733 50.401769 0.000000 -0.000000 0.000001 -3.986609 -3.330289 64.743875 4.062432 -4.619124 82.655138 2.318682 -4.028619 59.831672 -0.000000 -0.000000 0.000002 -88.078035 -4.553556 11.325977 77.420700 -4.441838 5.219199 -2.484170 -3.240938 -6.026892 -3.037941 -0.000004 0.000000 -0.000000 0.000001 -0.000000 -44.758639 -25.920213 10.690421 67.755572 -6.022336 3.802091 -40.846287 -15.974679 -12.293430 -2.560039 -0.000009 -0.000003 0.000000 0.000001 0.000000 
